<svg width="192" height="192" viewBox="0 0 192 192" xmlns="http://www.w3.org/2000/svg">
  <defs>
    <linearGradient id="grad1" x1="0%" y1="0%" x2="100%" y2="100%">
      <stop offset="0%" style="stop-color:#4F46E5;stop-opacity:1" />
      <stop offset="100%" style="stop-color:#7C3AED;stop-opacity:1" />
    </linearGradient>
  </defs>
  
  <!-- Background circle -->
  <circle cx="96" cy="96" r="88" fill="url(#grad1)" stroke="#1E1B4B" stroke-width="4"/>
  
  <!-- Microphone icon -->
  <g transform="translate(96, 96)">
    <!-- Microphone body -->
    <rect x="-12" y="-32" width="24" height="40" rx="12" fill="white"/>
    
    <!-- Microphone stand -->
    <rect x="-2" y="8" width="4" height="24" fill="white"/>
    
    <!-- Base -->
    <rect x="-16" y="28" width="32" height="6" rx="3" fill="white"/>
    
    <!-- Sound waves -->
    <path d="M -35 -8 Q -35 -20 -28 -20 Q -35 -20 -35 -8" stroke="white" stroke-width="3" fill="none"/>
    <path d="M -35 8 Q -35 20 -28 20 Q -35 20 -35 8" stroke="white" stroke-width="3" fill="none"/>
    <path d="M 35 -8 Q 35 -20 28 -20 Q 35 -20 35 -8" stroke="white" stroke-width="3" fill="none"/>
    <path d="M 35 8 Q 35 20 28 20 Q 35 20 35 8" stroke="white" stroke-width="3" fill="none"/>
  </g>
</svg>